<?xml version="1.0" encoding="iso-8859-1"?>
<!-- Uploaded to: SVG Repo, www.svgrepo.com, Generator: SVG Repo Mixer Tools -->
<!DOCTYPE svg PUBLIC "-//W3C//DTD SVG 1.1//EN" "http://www.w3.org/Graphics/SVG/1.1/DTD/svg11.dtd">
<svg fill="#000000" version="1.1" id="Capa_1" xmlns="http://www.w3.org/2000/svg" xmlns:xlink="http://www.w3.org/1999/xlink" 
	 width="800px" height="800px" viewBox="0 0 46.07 46.07" xml:space="preserve"
	>
<g>
	<path d="M44.555,25.287l-4.271-2.7v-4.176c0-1.005-0.824-1.852-1.829-1.852h-1.267c-1.004,0-1.844,0.846-1.844,1.852v1.078
		l-8.285-5.241c0.073-1.67,0.119-3.051,0.108-3.982c-0.013-1.172-1.479-7.367-4.232-7.367c-2.519,0-4.112,6.108-4.123,7.249
		c-0.01,0.955,0.033,2.404,0.113,4.164l-8.198,5.177v-1.078c0-1.005-0.811-1.852-1.816-1.852H7.646
		c-1.007,0-1.858,0.846-1.858,1.852v4.176l-4.271,2.7C0.57,25.884,0,26.925,0,28.044v2.92c0,0.461,0.235,0.895,0.606,1.168
		c0.372,0.271,0.858,0.351,1.298,0.211l17.78-5.612c0.194,2.789,0.396,5.509,0.571,7.819l-6.229,4.922
		c-0.531,0.418-0.83,1.056-0.83,1.73v1.167c0,0.265,0.123,0.515,0.342,0.663c0.22,0.148,0.494,0.18,0.741,0.083l6.941-2.75
		c0.428,0.46,1.035,0.733,1.709,0.733h0.134c0.673,0,1.283-0.273,1.712-0.733l6.942,2.744c0.246,0.097,0.519,0.069,0.736-0.08
		c0.219-0.149,0.343-0.396,0.343-0.66v-1.167c0-0.675-0.302-1.312-0.832-1.73l-6.23-4.918c0.177-2.32,0.381-5.053,0.576-7.854
		l17.875,5.646c0.438,0.138,0.92,0.06,1.291-0.213s0.594-0.707,0.594-1.166v-2.92C46.07,26.925,45.5,25.884,44.555,25.287z
		 M25.629,9.356c-0.1,0.13-0.251,0.2-0.402,0.2c-0.106,0-0.213-0.033-0.306-0.103c-2.024-1.536-3.757-0.083-3.831-0.021
		c-0.208,0.183-0.527,0.16-0.712-0.052c-0.182-0.211-0.159-0.531,0.053-0.712c0.83-0.716,2.967-1.64,5.101-0.021
		C25.754,8.817,25.797,9.133,25.629,9.356z"/>
</g>
</svg>