<!DOCTYPE svg PUBLIC "-//W3C//DTD SVG 1.1//EN" "http://www.w3.org/Graphics/SVG/1.1/DTD/svg11.dtd">
<!-- Uploaded to: SVG Repo, www.svgrepo.com, Transformed by: SVG Repo Mixer Tools -->
<svg width="256px" height="256px" viewBox="0 0 1024.00 1024.00" class="icon" version="1.1" xmlns="http://www.w3.org/2000/svg" fill="#000000" stroke="#000000" stroke-width="0.01024">
<g id="SVGRepo_bgCarrier" stroke-width="0"/>
<g id="SVGRepo_tracerCarrier" stroke-linecap="round" stroke-linejoin="round"/>
<g id="SVGRepo_iconCarrier">
<path d="M822.125714 390.582857h-40.96l-23.405714-117.028571c-8.777143-45.348571-51.2-81.92-96.548571-84.845715H656.822857l-538.331428-2.925714c-58.514286 0-71.68 33.645714-71.68 112.64v368.64h890.88v-115.565714c0-62.902857-51.2-160.914286-115.565715-160.914286z" fill="#1025c6"/>
<path d="M937.691429 677.302857H48.274286c-5.851429 0-10.24-4.388571-10.24-10.24V296.96c0-77.531429 13.165714-122.88 80.457143-122.88l545.645714 2.925714c49.737143 4.388571 95.085714 45.348571 105.325714 93.622857l20.48 108.251429h32.182857c71.68 0 125.805714 103.862857 125.805715 171.154286v115.565714c0 5.851429-4.388571 11.702857-10.24 11.702857zM58.514286 655.36h868.937143v-105.325714c0-58.514286-48.274286-150.674286-105.325715-150.674286h-40.96c-4.388571 0-8.777143-2.925714-10.24-8.777143l-23.405714-117.028571c-7.314286-39.497143-45.348571-74.605714-86.308571-77.531429h-1.462858l-1.462857-11.702857v10.24h-2.925714L117.028571 191.634286c-48.274286 0-61.44 23.405714-61.44 102.4v359.862857H58.514286z" fill="#141515"/>
<path d="M48.274286 267.702857c0 8.777143-1.462857 19.017143-1.462857 29.257143v96.548571h516.388571v-125.805714H48.274286z" fill="#03d7fc"/>
<path d="M573.44 403.748571H36.571429v-106.788571c0-11.702857 0-20.48 1.462857-30.72v-10.24h535.405714v147.748571zM58.514286 383.268571h495.908571V277.942857H59.977143v105.325714H58.514286z" fill="#141515"/>
<path d="M937.691429 661.211429v-109.714286c0-19.017143-4.388571-40.96-13.165715-62.902857h-29.257143c-21.942857 0-38.034286 17.554286-38.034285 38.034285v134.582858h80.457143z" fill="#AD787C"/>
<path d="M937.691429 671.451429h-80.457143c-5.851429 0-10.24-4.388571-10.24-10.24V526.628571c0-26.331429 21.942857-48.274286 48.274285-48.274285h29.257143c4.388571 0 8.777143 2.925714 10.24 7.314285 8.777143 23.405714 13.165714 46.811429 13.165715 67.291429v109.714286c0 4.388571-4.388571 8.777143-10.24 8.777143z m-70.217143-20.48h59.977143v-99.474286c0-16.091429-2.925714-33.645714-10.24-52.662857h-21.942858c-16.091429 0-27.794286 13.165714-27.794285 27.794285v124.342858z" fill="#141515"/>
<path d="M46.811429 440.32v90.697143h667.062857c8.777143 0 14.628571-7.314286 14.628571-14.628572v-61.44c0-8.777143-7.314286-14.628571-14.628571-14.628571H46.811429z" fill="#f1e909"/>
<path d="M713.874286 541.257143H46.811429c-5.851429 0-10.24-4.388571-10.24-10.24V438.857143c0-5.851429 4.388571-10.24 10.24-10.24h667.062857c13.165714 0 24.868571 11.702857 24.868571 24.868571v61.44c1.462857 16.091429-10.24 26.331429-24.868571 26.331429zM58.514286 520.777143h656.822857c2.925714 0 4.388571-1.462857 4.388571-4.388572v-61.44c0-2.925714-1.462857-4.388571-4.388571-4.388571H58.514286v70.217143z" fill="#141515"/>
<path d="M46.811429 667.062857h920.137142v95.085714H46.811429z" fill="#6f7980"/>
<path d="M968.411429 772.388571H48.274286c-5.851429 0-10.24-4.388571-10.24-10.24v-95.085714c0-5.851429 4.388571-10.24 10.24-10.24h920.137143c5.851429 0 10.24 4.388571 10.24 10.24V760.685714c0 7.314286-4.388571 11.702857-10.24 11.702857zM58.514286 751.908571h899.657143v-74.605714H58.514286v74.605714z" fill="#141515"/>
<path d="M741.668571 393.508571l-11.702857-67.291428c-5.851429-30.72-32.182857-55.588571-58.514285-58.514286h-58.514286v125.805714h128.731428z" fill="#03d7fc"/>
<path d="M753.371429 403.748571H602.697143V256h65.828571c33.645714 2.925714 64.365714 32.182857 70.217143 67.291429l14.628572 80.457142z m-130.194286-20.48h105.325714l-10.24-55.588571c-4.388571-24.868571-26.331429-48.274286-49.737143-49.737143l-1.462857-10.24v10.24h-43.885714v105.325714zM770.925714 627.565714c-5.851429 0-10.24-4.388571-10.24-10.24v-175.542857c0-5.851429 4.388571-10.24 10.24-10.24s10.24 4.388571 10.24 10.24v175.542857c0 5.851429-4.388571 10.24-10.24 10.24zM983.04 579.291429h-52.662857c-5.851429 0-10.24-4.388571-10.24-10.24s4.388571-10.24 10.24-10.24h52.662857c5.851429 0 10.24 4.388571 10.24 10.24s-4.388571 10.24-10.24 10.24z" fill="#141515"/>
<path d="M983.04 611.474286h-52.662857c-5.851429 0-10.24-4.388571-10.24-10.24s4.388571-10.24 10.24-10.24h52.662857c5.851429 0 10.24 4.388571 10.24 10.24s-4.388571 10.24-10.24 10.24z" fill="#141515"/>
<path d="M975.725714 627.565714h-64.365714c-10.24 0-19.017143 8.777143-19.017143 19.017143v10.24c0 10.24 8.777143 19.017143 19.017143 19.017143h64.365714c10.24 0 19.017143-8.777143 19.017143-19.017143v-10.24c0-10.24-8.777143-19.017143-19.017143-19.017143z" fill="#FFE638"/>
<path d="M975.725714 686.08h-64.365714c-16.091429 0-29.257143-13.165714-29.257143-29.257143v-10.24c0-16.091429 13.165714-29.257143 29.257143-29.257143h64.365714c16.091429 0 29.257143 13.165714 29.257143 29.257143v10.24c0 17.554286-13.165714 29.257143-29.257143 29.257143z m-64.365714-48.274286c-4.388571 0-8.777143 4.388571-8.777143 8.777143v10.24c0 4.388571 4.388571 8.777143 8.777143 8.777143h64.365714c4.388571 0 8.777143-4.388571 8.777143-8.777143v-10.24c0-4.388571-4.388571-8.777143-8.777143-8.777143h-64.365714z" fill="#141515"/>
<path d="M832.365714 839.68c43.885714 0 78.994286-35.108571 78.994286-78.994286s-35.108571-78.994286-78.994286-78.994285-78.994286 35.108571-78.994285 78.994285c-1.462857 42.422857 35.108571 78.994286 78.994285 78.994286z" fill="#21251d"/>
<path d="M832.365714 849.92c-49.737143 0-89.234286-40.96-89.234285-89.234286 0-49.737143 40.96-89.234286 89.234285-89.234285 49.737143 0 89.234286 40.96 89.234286 89.234285s-39.497143 89.234286-89.234286 89.234286z m0-159.451429c-38.034286 0-68.754286 30.72-68.754285 68.754286s30.72 68.754286 68.754285 68.754286 68.754286-30.72 68.754286-68.754286-30.72-68.754286-68.754286-68.754286z" fill="#141515"/>
<path d="M832.365714 759.222857m-38.034285 0a38.034286 38.034286 0 1 0 76.068571 0 38.034286 38.034286 0 1 0-76.068571 0Z" fill="#DAD9B4"/>
<path d="M832.365714 807.497143c-26.331429 0-48.274286-21.942857-48.274285-48.274286s21.942857-48.274286 48.274285-48.274286 48.274286 21.942857 48.274286 48.274286c-1.462857 26.331429-21.942857 48.274286-48.274286 48.274286z m0-74.605714c-14.628571 0-26.331429 11.702857-26.331428 26.331428s11.702857 26.331429 26.331428 26.331429 26.331429-11.702857 26.331429-26.331429-11.702857-26.331429-26.331429-26.331428z" fill="#141515"/>
<path d="M362.788571 839.68c43.885714 0 78.994286-35.108571 78.994286-78.994286s-35.108571-78.994286-78.994286-78.994285-78.994286 35.108571-78.994285 78.994285c0 42.422857 35.108571 78.994286 78.994285 78.994286z" fill="#21251d"/>
<path d="M362.788571 849.92c-49.737143 0-89.234286-40.96-89.234285-89.234286 0-49.737143 40.96-89.234286 89.234285-89.234285 49.737143 0 89.234286 40.96 89.234286 89.234285 1.462857 48.274286-39.497143 89.234286-89.234286 89.234286z m0-159.451429c-38.034286 0-68.754286 30.72-68.754285 68.754286s30.72 68.754286 68.754285 68.754286 68.754286-30.72 68.754286-68.754286-30.72-68.754286-68.754286-68.754286z" fill="#141515"/>
<path d="M165.302857 839.68c43.885714 0 78.994286-35.108571 78.994286-78.994286s-35.108571-78.994286-78.994286-78.994285S86.308571 716.8 86.308571 760.685714c0 42.422857 35.108571 78.994286 78.994286 78.994286z" fill="#21251d"/>
<path d="M165.302857 849.92c-49.737143 0-89.234286-40.96-89.234286-89.234286 0-49.737143 40.96-89.234286 89.234286-89.234285 49.737143 0 89.234286 40.96 89.234286 89.234285s-39.497143 89.234286-89.234286 89.234286z m0-159.451429c-38.034286 0-68.754286 30.72-68.754286 68.754286s30.72 68.754286 68.754286 68.754286 68.754286-30.72 68.754286-68.754286-30.72-68.754286-68.754286-68.754286z" fill="#141515"/>
<path d="M362.788571 759.222857m-38.034285 0a38.034286 38.034286 0 1 0 76.068571 0 38.034286 38.034286 0 1 0-76.068571 0Z" fill="#DAD9B4"/>
<path d="M362.788571 807.497143c-26.331429 0-48.274286-21.942857-48.274285-48.274286s21.942857-48.274286 48.274285-48.274286 48.274286 21.942857 48.274286 48.274286c0 26.331429-21.942857 48.274286-48.274286 48.274286z m0-74.605714c-14.628571 0-26.331429 11.702857-26.331428 26.331428s11.702857 26.331429 26.331428 26.331429 27.794286-11.702857 27.794286-26.331429-13.165714-26.331429-27.794286-26.331428z" fill="#141515"/>
<path d="M165.302857 759.222857m-38.034286 0a38.034286 38.034286 0 1 0 76.068572 0 38.034286 38.034286 0 1 0-76.068572 0Z" fill="#DAD9B4"/>
<path d="M165.302857 807.497143c-26.331429 0-48.274286-21.942857-48.274286-48.274286s21.942857-48.274286 48.274286-48.274286 48.274286 21.942857 48.274286 48.274286c0 26.331429-21.942857 48.274286-48.274286 48.274286z m0-74.605714c-14.628571 0-27.794286 11.702857-27.794286 26.331428s11.702857 26.331429 27.794286 26.331429c14.628571 0 26.331429-11.702857 26.331429-26.331429 1.462857-14.628571-11.702857-26.331429-26.331429-26.331428z" fill="#141515"/>
<path d="M112.64 627.565714H48.274286c-10.24 0-19.017143 8.777143-19.017143 19.017143v10.24c0 10.24 8.777143 19.017143 19.017143 19.017143h64.365714c10.24 0 19.017143-8.777143 19.017143-19.017143v-10.24c0-10.24-8.777143-19.017143-19.017143-19.017143z" fill="#EC748B"/>
<path d="M112.64 686.08H48.274286c-16.091429 0-29.257143-13.165714-29.257143-29.257143v-10.24c0-16.091429 13.165714-29.257143 29.257143-29.257143h64.365714c16.091429 0 29.257143 13.165714 29.257143 29.257143v10.24c0 17.554286-13.165714 29.257143-29.257143 29.257143z m-64.365714-48.274286c-4.388571 0-8.777143 4.388571-8.777143 8.777143v10.24c0 4.388571 4.388571 8.777143 8.777143 8.777143h64.365714c4.388571 0 8.777143-4.388571 8.777143-8.777143v-10.24c0-4.388571-4.388571-8.777143-8.777143-8.777143H48.274286z" fill="#141515"/>
<path d="M386.194286 272.091429h36.571428v121.417142h-36.571428z" fill="#f1e909"/>
<path d="M421.302857 403.748571h-36.571428c-5.851429 0-10.24-4.388571-10.24-10.24v-121.417142c0-5.851429 4.388571-10.24 10.24-10.24h36.571428c5.851429 0 10.24 4.388571 10.24 10.24v121.417142c0 5.851429-4.388571 10.24-10.24 10.24z m-24.868571-20.48h14.628571v-100.937142h-14.628571v100.937142z" fill="#141515"/>
<path d="M188.708571 272.091429h36.571429v121.417142h-36.571429z" fill="#f1e909"/>
<path d="M225.28 403.748571h-36.571429c-5.851429 0-10.24-4.388571-10.24-10.24v-121.417142c0-5.851429 4.388571-10.24 10.24-10.24h36.571429c5.851429 0 10.24 4.388571 10.24 10.24v121.417142c0 5.851429-4.388571 10.24-10.24 10.24z m-24.868571-20.48h14.628571v-100.937142h-14.628571v100.937142z" fill="#141515"/>
</g>
</svg>